<?xml version="1.0" encoding="UTF-8"?>
<svg width="84px" height="30px" viewBox="0 0 84 30" version="1.1" xmlns="http://www.w3.org/2000/svg" xmlns:xlink="http://www.w3.org/1999/xlink">
    <title>logo</title>
    <defs>
        <linearGradient x1="-39.9503768%" y1="64.229679%" x2="95.5819234%" y2="41.3487699%" id="linearGradient-1">
            <stop stop-color="#025DFF" offset="0%"></stop>
            <stop stop-color="#00E892" offset="100%"></stop>
        </linearGradient>
    </defs>
    <g id="页面-1" stroke="none" stroke-width="1" fill="none" fill-rule="evenodd">
        <g id="首页" transform="translate(-117.000000, -20.000000)">
            <g id="编组" transform="translate(117.000000, 20.000000)">
                <g id="编组备份-2">
                    <path d="M7.91921366,16.8339349 C8.81863561,22.1383189 13.4356743,26.1776062 18.996139,26.1776062 C24.5566037,26.1776062 29.1736424,22.1383189 30.0730643,16.8339349 L33.8529531,16.8339347 C32.9063428,24.152934 26.650134,29.8069498 19.0733591,29.8069498 C12.8963143,29.8069498 7.59698318,26.0490106 5.33687282,20.6946392 L2.26666667,20.6949807 C1.01482123,20.6949807 0,19.6801595 0,18.428314 L0,18.428314 L0,16.8339768 L7.91921366,16.8339349 Z M19.0733591,0 C25.249977,0 30.5490026,3.75741983 32.8093767,9.11120057 L40,9.11196911 L40,10.7063063 C40,11.9581517 38.9851788,12.972973 37.7333333,12.972973 L22.2376476,12.9721967 C21.5864088,11.9074566 20.4128623,11.1969112 19.0733591,11.1969112 C17.0262805,11.1969112 15.3667954,12.8563963 15.3667954,14.9034749 C15.3667954,16.9505535 17.0262805,18.6100386 19.0733591,18.6100386 C20.4131594,18.6100386 21.5869292,17.899178 22.2380807,16.8340448 L26.3126565,16.8336617 C25.4612869,20.0350331 22.5427853,22.3938224 19.0733591,22.3938224 C14.9365544,22.3938224 11.5830116,19.0402796 11.5830116,14.9034749 C11.5830116,10.7666702 14.9365544,7.41312741 19.0733591,7.41312741 C20.8762425,7.41312741 22.530357,8.05008293 23.8229432,9.11123471 L28.6022367,9.11142087 C26.6310887,5.87087417 23.0663648,3.70656371 18.996139,3.70656371 C13.463,3.70656371 8.86403729,7.70624812 7.93274272,12.9721252 L4.29389428,12.9720158 C5.24094486,5.65350114 11.496929,0 19.0733591,0 Z" id="形状结合" fill="url(#linearGradient-1)"></path>
                    <polygon id="路径-31" fill="#01B8B9" points="19.0733591 16.9662047 21.003861 15.0357028 19.0727365 13.1052008 17.1428571 15.0355231"></polygon>
                </g>
                <path d="M47.2,23 L47.2,16.5135135 L53.8594595,16.5135135 C53.8594595,15.0327933 52.6590986,13.8324324 51.1783784,13.8324324 L47.2,13.8324324 L47.2,13.8324324 L47.2,9.65945946 L51.2,9.65945946 C52.6687789,9.65945946 53.8594595,8.4687789 53.8594595,7 L53.8594595,7 L53.8594595,7 L44,7 L44,23 L47.2,23 Z M58.9085781,23 L58.9085781,7 L55.7085781,7 L55.7085781,23 L58.9085781,23 Z M71.5901293,23 C71.5901293,21.5192798 70.3897684,20.3189189 68.9090482,20.3189189 L65.1036428,20.3189189 L65.1036428,20.3189189 L65.1036428,7 L61.9036428,7 L61.9036428,23 L71.5901293,23 Z M83.1257344,23 C83.1257344,21.5192798 81.9253735,20.3189189 80.4446533,20.3189189 L76.6392479,20.3189189 L76.6392479,20.3189189 L76.6392479,7 L73.4392479,7 L73.4392479,23 L83.1257344,23 Z" id="FILL" fill="#000000" fill-rule="nonzero"></path>
            </g>
        </g>
    </g>
</svg>